<?xml version="1.0" standalone="no"?>
<!DOCTYPE svg PUBLIC "-//W3C//DTD SVG 20010904//EN"
 "http://www.w3.org/TR/2001/REC-SVG-20010904/DTD/svg10.dtd">
<svg version="1.0" xmlns="http://www.w3.org/2000/svg"
 width="400.000000pt" height="400.000000pt" viewBox="0 0 400.000000 400.000000"
 preserveAspectRatio="xMidYMid meet">
<metadata>
Created by potrace 1.11, written by Peter Selinger 2001-2013
</metadata>
<g transform="translate(0.000000,400.000000) scale(0.100000,-0.100000)"
fill="#000000" stroke="none">
<path d="M0 2000 l0 -2000 2000 0 2000 0 0 2000 0 2000 -2000 0 -2000 0 0
-2000z m1980 275 l0 -565 285 0 285 0 0 -50 0 -50 -345 0 -345 0 0 615 0 615
60 0 60 0 0 -565z m911 516 c18 -14 24 -29 24 -61 0 -32 -6 -47 -24 -61 -32
-27 -77 -24 -106 6 -71 70 29 179 106 116z m-1488 -395 c49 -24 117 -86 117
-108 0 -4 -20 -19 -45 -33 l-44 -26 -43 44 c-81 84 -208 89 -285 12 -26 -26
-33 -41 -33 -73 0 -76 45 -105 216 -141 110 -24 148 -39 193 -77 44 -37 61
-80 61 -154 0 -103 -40 -168 -135 -218 -45 -24 -61 -26 -155 -27 -135 0 -194
20 -267 91 -29 27 -53 54 -53 60 0 5 21 22 46 38 l45 29 15 -22 c41 -58 108
-96 186 -107 125 -17 240 83 208 181 -16 47 -74 80 -186 105 -138 30 -183 49
-229 95 -108 107 -51 290 107 347 80 28 206 21 281 -16z m1485 -523 c-3 -537
-3 -538 -26 -580 -34 -65 -87 -95 -175 -100 -92 -6 -113 7 -103 61 l7 37 43
-6 c28 -5 55 -2 79 8 68 29 67 16 67 597 l0 520 55 0 56 0 -3 -537z"/>
</g>
</svg>
